HIERARCHY
ROOT Hips
{
    OFFSET 0.0 0.0 0.0
    CHANNELS 6 Xposition Yposition Zposition Zrotation Xrotation Yrotation
    JOINT LeftHipJoint
    {
        OFFSET 0.1 0.0 0.0
        CHANNELS 3 Zrotation Xrotation Yrotation
        JOINT LeftUpLeg
        {
            OFFSET 131.67882175187515 0.0 0.0
            CHANNELS 3 Zrotation Xrotation Yrotation
            JOINT LeftLeg
            {
                OFFSET 0.0 0.0 -427.4324122246664
                CHANNELS 3 Zrotation Xrotation Yrotation
                JOINT LeftFoot
                {
                    OFFSET 0.0 0.0 -377.03387437382594
                    CHANNELS 3 Zrotation Xrotation Yrotation
                    End Site
                    {
                        OFFSET 0.0 -0.1 0.0
                    }
                }
            }
        }
    }
    JOINT LowerBack
    {
        OFFSET 0.0 0.0 0.1
        CHANNELS 3 Zrotation Xrotation Yrotation
        JOINT Spine
        {
            OFFSET 0.0 0.0 233.4442947809538
            CHANNELS 3 Zrotation Xrotation Yrotation
            JOINT Spine1
            {
                OFFSET 0.0 0.0 251.05617830761742
                CHANNELS 3 Zrotation Xrotation Yrotation
                JOINT LeftShoulder
                {
                    OFFSET 0.1 0.0 0.0
                    CHANNELS 3 Zrotation Xrotation Yrotation
                    JOINT LeftArm
                    {
                        OFFSET 149.6293578162429 0.0 0.0
                        CHANNELS 3 Zrotation Xrotation Yrotation
                        JOINT LeftForeArm
                        {
                            OFFSET 277.6743677730922 0.0 0.0
                            CHANNELS 3 Zrotation Xrotation Yrotation
                            JOINT LeftHand
                            {
                                OFFSET 252.96004602316188 0.0 0.0
                                CHANNELS 3 Zrotation Xrotation Yrotation
                                End Site
                                {
                                    OFFSET 0.1 0.0 0.0
                                }
                            }
                        }
                    }
                }
                JOINT Neck
                {
                    OFFSET 0.0 0.0 0.1
                    CHANNELS 3 Zrotation Xrotation Yrotation
                    JOINT Neck1
                    {
                        OFFSET 0.0 0.0 104.92716787100719
                        CHANNELS 3 Zrotation Xrotation Yrotation
                        End Site
                        {
                            OFFSET 0.0 0.0 107.47634046208702
                        }
                    }
                }
                JOINT RightShoulder
                {
                    OFFSET -0.1 0.0 0.0
                    CHANNELS 3 Zrotation Xrotation Yrotation
                    JOINT RightArm
                    {
                        OFFSET -149.6293578162429 0.0 0.0
                        CHANNELS 3 Zrotation Xrotation Yrotation
                        JOINT RightForeArm
                        {
                            OFFSET -277.6743677730922 0.0 0.0
                            CHANNELS 3 Zrotation Xrotation Yrotation
                            JOINT RightHand
                            {
                                OFFSET -252.96004602316188 0.0 0.0
                                CHANNELS 3 Zrotation Xrotation Yrotation
                                End Site
                                {
                                    OFFSET -0.1 0.0 0.0
                                }
                            }
                        }
                    }
                }
            }
        }
    }
    JOINT RightHipJoint
    {
        OFFSET -0.1 0.0 0.0
        CHANNELS 3 Zrotation Xrotation Yrotation
        JOINT RightUpLeg
        {
            OFFSET -131.67882175187515 0.0 0.0
            CHANNELS 3 Zrotation Xrotation Yrotation
            JOINT RightLeg
            {
                OFFSET 0.0 0.0 -427.4324122246664
                CHANNELS 3 Zrotation Xrotation Yrotation
                JOINT RightFoot
                {
                    OFFSET 0.0 0.0 -377.03387437382594
                    CHANNELS 3 Zrotation Xrotation Yrotation
                    End Site
                    {
                        OFFSET 0.0 -0.1 0.0
                    }
                }
            }
        }
    }
}
MOTION
Frames: 12
Frame Time: 0.03333333333333333
0.0 0.0 812.2012532178227 28.32031837887979 -23.591340756605707 7.53830653793112 0.0 3.1805546814635168e-15 0.0 0.35517592490267946 10.97273571643307 1.1494858814545963 1.3824726861778034 24.72923568793404 -3.8728476029660506 0.0 0.0 0.0 0.0 3.1805546814635168e-15 0.0 0.5303288625754558 16.268160457862646 -1.6217480348702984 -3.4224816953200583 7.073084015134117e-16 -3.7661540897462384e-16 -3.1805546814635168e-15 0.0 0.0 -90.01327307131191 9.954494537166816 56.085823047182515 -105.2325332018258 6.389376793145359e-15 3.1233803169183545e-15 0.0 0.0 0.0 -3.1805546814635168e-15 0.0 0.0 -6.562654804814508 4.219659392488085 -7.2551627239838385 -3.1805546814635168e-15 0.0 0.0 14.91765377983528 -35.906109171348724 -78.64296526308974 144.77031589354104 -1.0322074360380918e-14 1.674482099118508e-14 0.0 0.0 0.0 0.0 3.1805546814635168e-15 0.0 0.43508586501080765 13.546012171755862 -5.551192193446709 -1.490202692035912 22.009678331827253 11.002604860017929 0.0 0.0 -1.1927080055488188e-15
0.0 0.0 812.2012532178227 28.336140100740785 -23.570390369269834 7.530646088401548 3.1805546814635168e-15 0.0 0.0 0.35882520226081 10.97018387891739 1.1478926724504122 1.3967743953187457 24.823776539480864 -3.903496730579938 0.0 0.0 -7.951386703658792e-16 3.1805546814635168e-15 0.0 0.0 0.5372221751958378 16.305797658929688 -1.5787388290213837 -3.3842026202172857 -1.6013234897368347e-15 3.5043755212551425e-16 0.0 9.93923337957349e-17 0.0 -90.06234057104243 9.880366198095848 56.0930360434707 -105.20383676259301 0.0 -0.0 0.0 0.0 1.5902773407317584e-15 0.0 9.93923337957349e-17 0.0 -6.322658329465333 4.052158454938756 -7.107289862535601 0.0 9.93923337957349e-17 0.0 15.147940084247324 -35.94797110177695 -78.55547064048312 144.82439581839634 -3.7898496409578735e-15 -1.2013231566535014e-15 0.0 0.0 -6.3611093629270335e-15 3.1805546814635168e-15 0.0 0.0 0.437197723483182 13.473104299705135 -5.4722562273742525 -1.4588814120430855 22.125801339682052 10.643039774502464 0.0 0.0 1.1927080055488186e-15
0.0 0.0 812.2012532178227 28.427757392714135 -23.556097723050915 7.581761607979255 0.0 0.0 0.0 0.3621713638784962 11.030134243999417 1.0986796895696225 1.3712160528943176 24.72648672280316 -4.045138735758188 0.0 0.0 -3.975693351829396e-16 0.0 0.0 0.0 0.5403036429822212 16.3364914285284 -1.575362718860354 -3.4419803290010305 -2.4022499681518625e-15 5.244451669530419e-16 0.0 0.0 0.0 -90.19815680613759 9.864181240324314 56.180526172772815 -105.09812311622439 -7.574882084449279e-15 5.802112903305549e-15 -1.5902773407317584e-15 -2.2069531490250793e-32 1.5902773407317584e-15 0.0 0.0 0.0 -6.207110703838531 3.928943848938158 -7.042515034320194 0.0 0.0 0.0 15.136392514588502 -35.94924735967264 -78.51565744424117 144.89413175217916 -7.178965513125936e-15 -8.942567820513404e-15 3.180554681463516e-15 0.0 0.0 0.0 0.0 0.0 0.44222614997757786 13.572827760907176 -5.4040383487841686 -1.4028156745079008 21.77497978928132 10.426823346552759 0.0 0.0 3.975693351829396e-16
0.0 0.0 812.2012532178227 28.5212601568501 -23.39980557477751 7.720823900246517 0.0 0.0 0.0 0.37894307615199163 11.01627276277174 0.8754382515771619 1.2930953063303887 24.448413535885933 -3.9671180103378627 0.0 0.0 -7.951386703658792e-16 0.0 0.0 0.0 0.5660479149892285 16.3288842787608 -1.6238317983414357 -3.520001381927914 2.9176495174922247e-15 -1.103618942470514e-15 0.0 0.0 0.0 -90.251416574046 9.914857020715802 56.21758350979126 -105.07830525501495 0.0 -0.0 0.0 0.0 -1.5902773407317584e-15 0.0 0.0 0.0 -6.15052614059105 3.9091285224386887 -7.0517193154798585 0.0 0.0 0.0 15.009167975925749 -35.99559592658574 -78.54299476676513 145.01179849854668 5.6714205931141926e-15 8.457142028737608e-15 0.0 0.0 -6.3611093629270335e-15 0.0 0.0 0.0 0.460500722729411 13.482948160682811 -5.556168055524705 -1.3947851602017347 21.32081694849853 10.362206231275826 0.0 0.0 -3.975693351829396e-16
0.0 0.0 812.2012532178227 28.59142422632355 -23.33695585757788 7.847595191015491 4.4139062980501586e-32 -3.1805546814635164e-15 1.5902773407317582e-15 0.3952332679179658 11.100768076968542 0.7795195436960809 1.2668019589226354 24.205724429296446 -4.042689440435077 0.0 0.0 0.0 4.4139062980501586e-32 -3.1805546814635164e-15 1.5902773407317582e-15 0.5867400131451743 16.34911123888218 -1.6931297429407666 -3.586891105596017 1.067895115212407e-15 8.28966034357015e-16 0.0 0.0 0.0 -90.44478172052939 10.015232906089848 56.23561994045941 -105.00151317318891 2.5233292476649244e-15 -1.9361656927180223e-15 0.0 0.0 0.0 0.0 0.0 0.0 -5.970003793738513 4.030046002855649 -7.098049489943168 0.0 0.0 0.0 15.147656641379752 -36.03354056569332 -78.40643869977646 145.12519307582065 7.216379367414235e-15 -4.400864790370841e-15 3.1805546814635168e-15 0.0 0.0 4.4139062980501586e-32 -3.1805546814635164e-15 1.5902773407317582e-15 0.4744850851143226 13.41979300875494 -5.641591783049355 -1.3769876847656066 20.986214218113005 10.251552818176778 0.0 0.0 0.0
0.0 0.0 812.2012532178227 28.667319223729752 -23.25647799887998 7.93774385377507 -3.4483642953516864e-34 -4.969616689786745e-17 -7.951386703658792e-16 0.41336981546269874 11.127965880931836 0.6218847957289702 1.2329273355518229 24.15652122191071 -4.103254801209895 0.0 0.0 0.0 -3.4483642953516864e-34 -4.969616689786745e-17 -7.951386703658792e-16 0.6125669603394808 16.35669583401972 -1.7421275816308417 -3.640158011139116 1.986843789882262e-16 6.3136055874643586e-18 0.0 0.0 0.0 -90.42835328513154 10.109140860091284 56.1880980021323 -105.11588703248754 5.05052095571232e-15 -3.86729238654497e-15 0.0 0.0 0.0 0.0 0.0 0.0 -5.934981646394498 3.973463219729922 -7.198574546725524 0.0 0.0 0.0 15.175234787094272 -36.084636621549 -78.33244061826446 145.30217435683608 5.31156649956798e-15 -1.1669237020884609e-14 0.0 0.0 6.3611093629270335e-15 -3.4483642953516864e-34 -4.969616689786745e-17 -7.951386703658792e-16 0.4859282696771882 13.178605625331056 -5.765607407305906 -1.4062651223892737 21.193769152962712 10.146169957203695 0.0 0.0 1.1927080055488188e-15
0.0 0.0 812.2012532178227 28.729033091174397 -23.15468702644852 8.065797824146507 0.0 0.0 0.0 0.42356385687783815 11.189878129957401 0.4977617112177655 1.1898221652074707 24.053922617534383 -4.1963313278194825 0.0 0.0 0.0 0.0 0.0 0.0 0.6259499973170972 16.398555446261494 -1.7658254875804607 -3.6843212108433323 2.694986423184283e-15 -3.1109646701250355e-16 0.0 0.0 -1.9878466759146977e-16 -90.4616965073055 10.156277502515707 56.14817916044629 -105.15082364725446 7.577549668580532e-15 -5.798628609956885e-15 0.0 0.0 -1.5902773407317584e-15 0.0 0.0 -1.9878466759146977e-16 -5.866295108955608 4.004891356877691 -7.295100666101936 0.0 0.0 -1.9878466759146977e-16 15.156143015705421 -36.16993401421166 -78.30625986096545 145.37120797116754 9.868401369863113e-15 3.076385016066706e-15 3.1805546814635168e-15 0.0 0.0 0.0 0.0 0.0 0.4878003028617164 12.987349102857298 -5.954975078735244 -1.4665372323348047 21.21724690494421 10.160681712538686 0.0 0.0 0.0
0.0 0.0 812.2012532178227 28.760675845124396 -23.01556094147469 8.18170770729852 6.896728590703373e-34 -9.93923337957349e-17 7.951386703658792e-16 0.4269367243899618 11.225718486159032 0.39935635711677997 1.1481079902956897 24.008858214930907 -4.276248710130125 0.0 0.0 0.0 6.896728590703373e-34 -9.93923337957349e-17 7.951386703658792e-16 0.6296116719157511 16.41506271261216 -1.7837785842200176 -3.770761626622375 1.2182225179540416e-15 -7.554679267587565e-16 0.0 0.0 0.0 -90.46669418888804 10.214464743759127 56.10070076326906 -105.25554190670233 0.0 -0.0 0.0 0.0 0.0 0.0 0.0 0.0 -5.90258214741003 3.9705726790779963 -7.491213705072146 0.0 0.0 0.0 15.11838892804406 -36.34898699344519 -78.32124251739687 145.38710797746336 7.480722157074152e-16 -1.3092408691693747e-14 0.0 0.0 0.0 6.896728590703373e-34 -9.93923337957349e-17 7.951386703658792e-16 0.47725843080266717 12.658391325138433 -6.098801019975754 -1.5234013930781864 21.26445212408941 10.16074145974055 0.0 0.0 1.1927080055488188e-15
0.0 0.0 812.2012532178227 28.842607918555938 -23.00891066364101 8.319414838769893 0.0 0.0 0.0 0.44105728517768117 11.320260923675216 0.23333094785120076 1.1009861057622954 24.065699780976736 -4.339551898710275 0.0 0.0 3.975693351829396e-16 0.0 0.0 0.0 0.6464280749639789 16.449575319412112 -1.8313519684009065 -3.840224308980896 1.2447514830575484e-15 1.4340044950290256e-15 0.0 0.0 0.0 -90.43096570674177 10.23137907193644 56.085580064155 -105.39791141415081 3.854850713155309e-15 5.060023548008841e-15 0.0 0.0 -1.5902773407317584e-15 0.0 0.0 0.0 -5.864030185936278 4.061552769835347 -7.445511662316283 0.0 0.0 0.0 15.168687841572746 -36.44721119191734 -78.32748344351883 145.34191120463515 -6.831425444549613e-15 -2.131551620198017e-15 -3.1805546814635168e-15 0.0 0.0 0.0 0.0 0.0 0.48963584611134253 12.674671636145026 -6.278894821093364 -1.56285135698522 21.14079061500467 10.05769053769676 0.0 0.0 -3.975693351829396e-16
0.0 0.0 812.2012532178227 28.988242990229594 -22.929304381527693 8.373395824470514 0.0 0.0 0.0 0.42950127569771496 11.428129330706813 0.2252522029131401 1.0563093128880483 23.950254373958018 -4.550697434901182 0.0 0.0 -7.951386703658792e-16 0.0 0.0 0.0 0.6242931590019882 16.473970620128224 -1.8268892294480739 -3.9058529539417295 1.794797117347524e-15 -1.377008397070009e-16 3.1805546814635168e-15 -9.93923337957349e-17 -3.975693351829396e-16 -90.51187257473448 10.181877203129087 56.055361107645645 -105.47689211581917 -1.0125358500590945e-14 7.702724488321168e-15 0.0 0.0 0.0 3.1805546814635168e-15 -9.93923337957349e-17 -3.975693351829396e-16 -5.805746488313747 4.0586073658696975 -7.466836583432112 3.1805546814635168e-15 -9.93923337957349e-17 -3.975693351829396e-16 15.295390328256413 -36.54597624157163 -78.27549228722583 145.2977617235731 -3.414963890986158e-15 5.597384743862398e-15 0.0 0.0 0.0 0.0 0.0 0.0 0.4763697626639592 12.786112385624126 -6.313643969345765 -1.5733095860768274 20.734156613426368 9.870125089245125 0.0 0.0 -9.93923337957349e-16
0.0 0.0 812.2012532178227 29.115045078172802 -22.921409746745894 8.430042372152393 0.0 -9.93923337957349e-17 0.0 0.4316722506270151 11.567385652760269 0.07330202722433139 0.9731189359866074 23.758107114088578 -4.557845628572622 0.0 0.0 -3.975693351829396e-16 0.0 -9.93923337957349e-17 0.0 0.62168427070183 16.526364703448497 -1.8058501325254275 -3.9364760465440574 2.4318001444202115e-15 -1.3087434672241578e-15 0.0 0.0 1.987846675914698e-16 -90.4818929017718 10.037980129151219 56.10346327558599 -105.4532990142697 1.1445233797554756e-14 -7.167205748712037e-16 0.0 0.0 -1.5902773407317584e-15 0.0 0.0 1.987846675914698e-16 -5.780440026959225 4.080579037471377 -7.3821790757375485 0.0 0.0 1.987846675914698e-16 15.347702570826378 -36.553971790143244 -78.36424354009615 145.13949589404632 7.604010427416529e-15 -1.094714631107089e-14 0.0 0.0 -6.361109362927032e-15 0.0 -9.93923337957349e-17 0.0 0.48382649888790746 13.075241662339923 -6.343253241807627 -1.5573058963028619 20.345158410256552 9.57031733752042 0.0 0.0 -1.987846675914698e-16
0.0 0.0 812.2012532178227 29.242407756082898 -22.82681928055744 8.498504452617428 0.0 0.0 0.0 0.4256114551826063 11.649704070783594 -0.03249134028189999 0.8995731255740278 23.594495052828506 -4.745657629095224 0.0 0.0 3.975693351829396e-16 0.0 0.0 0.0 0.6105274782825868 16.58197933852423 -1.8227995139817357 -3.990030142842102 -1.0071612817101516e-15 3.627273502757237e-16 0.0 0.0 1.987846675914698e-16 -90.47565044473411 9.92028748557021 56.050671560266935 -105.36294252363854 1.1444665098877938e-14 -7.257450224828876e-16 0.0 0.0 -1.5902773407317584e-15 0.0 0.0 1.987846675914698e-16 -5.784658235859118 4.063841230000616 -7.353871944515088 0.0 0.0 1.987846675914698e-16 15.715834212522932 -36.655890763419244 -78.16783478245137 145.09169383001986 -1.5403499022369061e-15 1.2851940749674798e-14 0.0 0.0 0.0 0.0 0.0 0.0 0.48112329899356043 13.281390468731416 -6.401580348774145 -1.5464472516465948 19.768034317075585 9.2079061292037 0.0 0.0 -7.951386703658792e-16
